<svg width="414" height="824" viewBox="0 0 414 824" fill="none" xmlns="http://www.w3.org/2000/svg" xmlns:xlink="http://www.w3.org/1999/xlink">
<path d="M46.5 136.5L205 54L369 136.5L205 415.5L46.5 136.5Z" fill="url(#pattern0_430_72)"/>
<path d="M48 499.5L206.5 417L370.5 499.5L206.5 778.5L48 499.5Z" fill="url(#pattern1_430_72)"/>
<rect x="332.513" y="475.702" width="21" height="278.131" transform="rotate(120.72 332.513 475.702)" fill="white" stroke="black" stroke-width="2"/>
<rect x="175.255" y="562.005" width="21" height="95.2025" transform="rotate(120.72 175.255 562.005)" fill="white" stroke="black" stroke-width="2"/>
<rect x="1.37052" y="0.348822" width="21" height="96.1616" transform="matrix(0.510849 0.859671 0.859671 -0.510849 237.32 561.495)" fill="white" stroke="black" stroke-width="2"/>
<rect x="1.37052" y="0.348822" width="21" height="280.358" transform="matrix(0.510849 0.859671 0.859671 -0.510849 81.684 472.811)" fill="white" stroke="black" stroke-width="2"/>
<rect x="196" y="91" width="21" height="279" fill="white" stroke="black" stroke-width="2"/>
<rect x="164.875" y="60.631" width="21" height="96.1547" transform="rotate(60.9314 164.875 60.631)" fill="white" stroke="black" stroke-width="2"/>
<rect x="193.545" y="370.99" width="21" height="228.484" transform="rotate(150.38 193.545 370.99)" fill="white" stroke="black" stroke-width="2"/>
<rect x="192.878" y="734.816" width="21" height="227.133" transform="rotate(150.38 192.878 734.816)" fill="white" stroke="black" stroke-width="2"/>
<rect x="1.36357" y="-0.375084" width="21" height="231.655" transform="matrix(0.869325 0.494241 0.494241 -0.869325 218.659 732.746)" fill="white" stroke="black" stroke-width="2"/>
<rect x="1.36357" y="-0.375084" width="21" height="227.071" transform="matrix(0.869325 0.494241 0.494241 -0.869325 219.082 368.762)" fill="white" stroke="black" stroke-width="2"/>
<rect x="0.388181" y="1.3599" width="21" height="100.547" transform="matrix(-0.485857 0.874038 0.874038 0.485857 245.82 58.6591)" fill="white" stroke="black" stroke-width="2"/>
<rect x="38" y="183" width="21" height="94" fill="white" stroke="black" stroke-width="2"/>
<rect x="38" y="365" width="21" height="99" fill="white" stroke="black" stroke-width="2"/>
<rect x="355" y="185" width="21" height="96" fill="white" stroke="black" stroke-width="2"/>
<rect x="355" y="365" width="21" height="94" fill="white" stroke="black" stroke-width="2"/>
<rect x="196" y="459" width="21" height="92" fill="white" stroke="black" stroke-width="2"/>
<rect x="196" y="640" width="21" height="93" fill="white" stroke="black" stroke-width="2"/>
<rect x="88" y="130" width="236" height="21" fill="white" stroke="black" stroke-width="2"/>
<rect x="88" y="311" width="236" height="21" fill="white" stroke="black" stroke-width="2"/>
<rect x="91" y="493" width="232" height="21" fill="white" stroke="black" stroke-width="2"/>
<circle cx="207" cy="48" r="47" fill="white" stroke="black" stroke-width="2"/>
<circle cx="207" cy="48" r="23" fill="#39FF14" stroke="black" stroke-width="2"/>
<circle cx="207" cy="412" r="47" fill="white" stroke="black" stroke-width="2"/>
<circle cx="207" cy="412" r="23" fill="#39FF14" stroke="black" stroke-width="2"/>
<circle cx="207" cy="594" r="47" fill="white" stroke="black" stroke-width="2"/>
<circle cx="207" cy="594" r="23" fill="#39FF14" stroke="black" stroke-width="2"/>
<circle cx="207" cy="776" r="47" fill="white" stroke="black" stroke-width="2"/>
<circle cx="207" cy="776" r="23" fill="#39FF14" stroke="black" stroke-width="2"/>
<circle cx="48" cy="138" r="47" fill="white" stroke="black" stroke-width="2"/>
<circle cx="48" cy="138" r="23" fill="#39FF14" stroke="black" stroke-width="2"/>
<circle cx="48" cy="321" r="47" fill="white" stroke="black" stroke-width="2"/>
<circle cx="48" cy="321" r="23" fill="#39FF14" stroke="black" stroke-width="2"/>
<circle cx="48" cy="504" r="47" fill="white" stroke="black" stroke-width="2"/>
<circle cx="48" cy="504" r="23" fill="#39FF14" stroke="black" stroke-width="2"/>
<circle cx="366" cy="138" r="47" fill="white" stroke="black" stroke-width="2"/>
<circle cx="366" cy="138" r="23" fill="#39FF14" stroke="black" stroke-width="2"/>
<circle cx="366" cy="321" r="47" fill="white" stroke="black" stroke-width="2"/>
<circle cx="366" cy="321" r="23" fill="#39FF14" stroke="black" stroke-width="2"/>
<circle cx="366" cy="504" r="47" fill="white" stroke="black" stroke-width="2"/>
<circle cx="366" cy="504" r="23" fill="#39FF14" stroke="black" stroke-width="2"/>
<defs>
<pattern id="pattern0_430_72" patternContentUnits="objectBoundingBox" width="1" height="1">
<use xlink:href="#image0_430_72" transform="matrix(0.00109466 0 0 0.000976562 -0.0604651 0)"/>
</pattern>
<pattern id="pattern1_430_72" patternContentUnits="objectBoundingBox" width="1" height="1">
<use xlink:href="#image1_430_72" transform="matrix(0.00109466 0 0 0.000976562 -0.0604651 0)"/>
</pattern>
</defs>
</svg>
